<svg xmlns="http://www.w3.org/2000/svg" width="54" height="57" viewBox="0 0 54 57" version="1.1"><path d="M 9 9.500 C 9 9.775, 9.225 10, 9.500 10 C 9.775 10, 10 9.775, 10 9.500 C 10 9.225, 9.775 9, 9.500 9 C 9.225 9, 9 9.225, 9 9.500 M 26 12.500 C 26 12.775, 26.225 13, 26.500 13 C 26.775 13, 27 12.775, 27 12.500 C 27 12.225, 26.775 12, 26.500 12 C 26.225 12, 26 12.225, 26 12.500 M 44.333 26.667 C 44.700 27.033, 45.300 27.033, 45.667 26.667 C 46.033 26.300, 45.733 26, 45 26 C 44.267 26, 43.967 26.300, 44.333 26.667 M 12 29.500 C 12 29.775, 12.225 30, 12.500 30 C 12.775 30, 13 29.775, 13 29.500 C 13 29.225, 12.775 29, 12.500 29 C 12.225 29, 12 29.225, 12 29.500 M 15.813 35.683 C 16.534 35.972, 17.397 35.936, 17.729 35.604 C 18.061 35.272, 17.471 35.036, 16.417 35.079 C 15.252 35.127, 15.015 35.364, 15.813 35.683 M 20.079 39.583 C 20.127 40.748, 20.364 40.985, 20.683 40.188 C 20.972 39.466, 20.936 38.603, 20.604 38.271 C 20.272 37.939, 20.036 38.529, 20.079 39.583 M 23.079 42.583 C 23.127 43.748, 23.364 43.985, 23.683 43.188 C 23.972 42.466, 23.936 41.603, 23.604 41.271 C 23.272 40.939, 23.036 41.529, 23.079 42.583" stroke="none" fill="#42ae39" fill-rule="evenodd"/><path d="M 9 6.500 C 9 6.775, 9.225 7, 9.500 7 C 9.775 7, 10 6.775, 10 6.500 C 10 6.225, 9.775 6, 9.500 6 C 9.225 6, 9 6.225, 9 6.500 M 6 9.500 C 6 9.775, 6.225 10, 6.500 10 C 6.775 10, 7 9.775, 7 9.500 C 7 9.225, 6.775 9, 6.500 9 C 6.225 9, 6 9.225, 6 9.500 M 15.813 9.683 C 16.534 9.972, 17.397 9.936, 17.729 9.604 C 18.061 9.272, 17.471 9.036, 16.417 9.079 C 15.252 9.127, 15.015 9.364, 15.813 9.683 M 26 9.500 C 26 9.775, 26.225 10, 26.500 10 C 26.775 10, 27 9.775, 27 9.500 C 27 9.225, 26.775 9, 26.500 9 C 26.225 9, 26 9.225, 26 9.500 M 3.667 12.667 C 2.348 13.985, 2.960 22.878, 4.426 23.700 C 5.210 24.140, 6.034 26.300, 6.257 28.500 L 6.664 32.500 6.832 28.219 C 6.950 25.220, 6.551 23.765, 5.500 23.362 C 3.595 22.631, 3.380 13.417, 5.250 12.662 C 5.948 12.381, 6.021 12.123, 5.417 12.079 C 4.821 12.036, 4.033 12.300, 3.667 12.667 M 9 15.500 C 9 15.775, 9.225 16, 9.500 16 C 9.775 16, 10 15.775, 10 15.500 C 10 15.225, 9.775 15, 9.500 15 C 9.225 15, 9 15.225, 9 15.500 M 47.699 26.702 C 48.363 27.174, 49.068 30.670, 49.278 34.528 L 49.657 41.500 49.579 34.080 C 49.518 28.379, 49.153 26.566, 48 26.254 C 46.943 25.968, 46.854 26.100, 47.699 26.702 M 9.232 35 C 9.232 36.925, 9.438 37.712, 9.689 36.750 C 9.941 35.788, 9.941 34.212, 9.689 33.250 C 9.438 32.288, 9.232 33.075, 9.232 35 M 12.136 40.750 C 12.032 43.236, 12.412 43.996, 13.750 43.985 C 14.874 43.975, 15.089 43.707, 14.351 43.235 C 13.719 42.831, 12.993 41.375, 12.737 40 C 12.344 37.883, 12.251 37.998, 12.136 40.750 M 46.079 42.583 C 46.127 43.748, 46.364 43.985, 46.683 43.188 C 46.972 42.466, 46.936 41.603, 46.604 41.271 C 46.272 40.939, 46.036 41.529, 46.079 42.583 M 15.813 46.683 C 16.534 46.972, 17.397 46.936, 17.729 46.604 C 18.061 46.272, 17.471 46.036, 16.417 46.079 C 15.252 46.127, 15.015 46.364, 15.813 46.683 M 43 46.500 C 43 46.775, 43.225 47, 43.500 47 C 43.775 47, 44 46.775, 44 46.500 C 44 46.225, 43.775 46, 43.500 46 C 43.225 46, 43 46.225, 43 46.500 M 19.961 49.733 C 21.314 49.987, 22.900 50.849, 23.485 51.648 C 24.286 52.744, 26.262 53.014, 31.524 52.747 L 38.500 52.392 31.250 52.196 C 25.559 52.042, 24 51.677, 24 50.500 C 24 49.446, 23.033 49.041, 20.750 49.136 C 18.055 49.249, 17.920 49.351, 19.961 49.733 M 40 49.500 C 40 49.775, 40.225 50, 40.500 50 C 40.775 50, 41 49.775, 41 49.500 C 41 49.225, 40.775 49, 40.500 49 C 40.225 49, 40 49.225, 40 49.500" stroke="none" fill="#205722" fill-rule="evenodd"/><path d="M 11.750 6.706 C 12.988 6.944, 15.012 6.944, 16.250 6.706 C 17.488 6.467, 16.475 6.272, 14 6.272 C 11.525 6.272, 10.512 6.467, 11.750 6.706 M 6.459 10.067 C 5.433 11.727, 6.354 11.957, 7.789 10.399 C 8.499 9.630, 8.638 9, 8.098 9 C 7.559 9, 6.821 9.480, 6.459 10.067 M 21.487 9.708 C 23.680 9.951, 25.852 10.678, 26.313 11.324 C 26.890 12.132, 27.026 12.031, 26.748 11 C 26.473 9.978, 24.935 9.463, 21.922 9.383 C 17.533 9.268, 17.530 9.270, 21.487 9.708 M 4 17.893 C 4 21.320, 4.449 22.958, 5.500 23.362 C 6.490 23.742, 7 25.308, 7 27.969 C 7 30.885, 7.415 32, 8.500 32 C 9.500 32, 10 33, 10 35 C 10 36.650, 10.450 38, 11 38 C 11.550 38, 12 36.650, 12 35 C 12 33.350, 11.550 32, 11 32 C 10.450 32, 10 30.186, 10 27.969 C 10 25.413, 9.481 23.738, 8.584 23.394 C 7.776 23.084, 6.876 20.734, 6.490 17.925 C 5.616 11.576, 4 11.555, 4 17.893 M 46.232 24 C 46.232 25.925, 46.438 26.712, 46.689 25.750 C 46.941 24.788, 46.941 23.212, 46.689 22.250 C 46.438 21.288, 46.232 22.075, 46.232 24 M 13 40.500 C 13 41.875, 13.450 43, 14 43 C 14.550 43, 15 43.675, 15 44.500 C 15 45.325, 15.675 46, 16.500 46 C 17.325 46, 18 46.675, 18 47.500 C 18 48.500, 19 49, 21 49 C 23 49, 24 49.500, 24 50.500 C 24 51.681, 25.398 52, 30.579 52 C 37.043 52, 37.237 51.921, 41.658 47.500 C 44.133 45.025, 45.764 43, 45.282 43 C 44.800 43, 43.302 44.331, 41.953 45.958 C 39.634 48.754, 39.082 48.918, 31.857 48.958 C 25.958 48.990, 24.083 48.658, 23.638 47.500 C 23.322 46.675, 22.149 46, 21.031 46 C 18.429 46, 15 42.589, 15 40 C 15 38.900, 14.550 38, 14 38 C 13.450 38, 13 39.125, 13 40.500" stroke="none" fill="#24762b" fill-rule="evenodd"/><path d="M 9 8 C 9 8.733, 9.300 9.033, 9.667 8.667 C 10.033 8.300, 10.033 7.700, 9.667 7.333 C 9.300 6.967, 9 7.267, 9 8 M 6.700 17.498 C 6.953 20.412, 7.732 22.830, 8.567 23.298 C 9.434 23.783, 10 25.661, 10 28.050 C 10 30.222, 10.450 32, 11 32 C 11.550 32, 12 33.350, 12 35 C 12 37, 12.500 38, 13.500 38 C 14.333 38, 15 38.889, 15 40 C 15 42.589, 18.429 46, 21.031 46 C 22.149 46, 23.322 46.675, 23.638 47.500 C 24.078 48.646, 25.958 49, 31.608 49 C 38.921 49, 39.045 48.956, 42.884 45 C 45.019 42.800, 47.269 41, 47.883 41 C 48.497 41, 49 40.325, 49 39.500 C 49 38.675, 48.325 38, 47.500 38 C 46.675 38, 46 38.675, 46 39.500 C 46 40.325, 45.325 41, 44.500 41 C 43.675 41, 43 41.441, 43 41.981 C 43 42.520, 41.875 43.244, 40.500 43.589 C 39.125 43.934, 38 44.618, 38 45.108 C 38 45.599, 35.525 46, 32.500 46 C 29.475 46, 27 45.550, 27 45 C 27 44.450, 26.132 44, 25.071 44 C 24.011 44, 22.468 43.325, 21.643 42.500 C 20.818 41.675, 19.661 41, 19.071 41 C 18.482 41, 18 40.325, 18 39.500 C 18 38.675, 17.325 38, 16.500 38 C 15.556 38, 15 37.048, 15 35.429 C 15 34.014, 14.325 32.182, 13.500 31.357 C 12.675 30.532, 12 28.314, 12 26.429 C 12 24.543, 11.559 23, 11.019 23 C 10.480 23, 9.756 21.875, 9.411 20.500 C 9.066 19.125, 8.410 18, 7.955 18 C 7.499 18, 6.933 16.762, 6.696 15.250 C 6.459 13.738, 6.461 14.749, 6.700 17.498 M 28.750 12.706 C 29.988 12.944, 32.013 12.944, 33.250 12.706 C 34.487 12.467, 33.475 12.272, 31 12.272 C 28.525 12.272, 27.512 12.467, 28.750 12.706 M 35.813 15.683 C 36.534 15.972, 37.397 15.936, 37.729 15.604 C 38.061 15.272, 37.471 15.036, 36.417 15.079 C 35.252 15.127, 35.015 15.364, 35.813 15.683 M 43.079 19.583 C 43.127 20.748, 43.364 20.985, 43.683 20.188 C 43.972 19.466, 43.936 18.603, 43.604 18.271 C 43.272 17.939, 43.036 18.529, 43.079 19.583" stroke="none" fill="#24b12b" fill-rule="evenodd"/><path d="M 33 28 C 33 28.550, 34.125 29, 35.500 29 C 36.875 29, 38 28.550, 38 28 C 38 27.450, 36.875 27, 35.500 27 C 34.125 27, 33 27.450, 33 28" stroke="none" fill="#ffffff" fill-rule="evenodd"/><path d="M 24 31 C 24 33.200, 24.450 35, 25 35 C 25.550 35, 26 35.675, 26 36.500 C 26 37.667, 27.333 38, 32 38 C 36.667 38, 38 37.667, 38 36.500 C 38 35.675, 38.675 35, 39.500 35 C 40.325 35, 41 34.325, 41 33.500 C 41 32.675, 40.325 32, 39.500 32 C 38.675 32, 38 32.675, 38 33.500 C 38 34.583, 36.889 35, 34 35 C 31.111 35, 30 34.583, 30 33.500 C 30 32.675, 29.325 32, 28.500 32 C 27.567 32, 27 31.056, 27 29.500 C 27 27.944, 26.433 27, 25.500 27 C 24.417 27, 24 28.111, 24 31" stroke="none" fill="#8a5a3c" fill-rule="evenodd"/><path d="M 15.813 12.683 C 16.534 12.972, 17.397 12.936, 17.729 12.604 C 18.061 12.272, 17.471 12.036, 16.417 12.079 C 15.252 12.127, 15.015 12.364, 15.813 12.683 M 12 17 C 12 17.733, 12.300 18.033, 12.667 17.667 C 13.033 17.300, 13.033 16.700, 12.667 16.333 C 12.300 15.967, 12 16.267, 12 17 M 24.683 25.956 C 22.594 28.070, 22.662 35.179, 24.775 35.598 C 25.476 35.736, 25.589 35.621, 25.025 35.342 C 23.321 34.497, 23.748 27, 25.500 27 C 26.433 27, 27 27.944, 27 29.500 C 27 31.056, 27.567 32, 28.500 32 C 29.325 32, 30 32.675, 30 33.500 C 30 34.541, 31.046 35, 33.418 35 C 35.298 35, 37.436 35.151, 38.168 35.336 C 38.901 35.521, 39.163 35.483, 38.750 35.253 C 37.393 34.494, 37.968 32, 39.500 32 C 40.433 32, 41 31.056, 41 29.500 C 41 27.944, 40.433 27, 39.500 27 C 38.675 27, 38 27.450, 38 28 C 38 28.550, 36.650 29, 35 29 C 33.350 29, 32 28.550, 32 28 C 32 27.450, 33.350 27, 35 27 C 37 27, 38 26.500, 38 25.500 C 38 23.155, 27.083 23.529, 24.683 25.956" stroke="none" fill="#b1825f" fill-rule="evenodd"/><path d="M 10 12.500 C 10 14.056, 10.567 15, 11.500 15 C 12.325 15, 13 15.675, 13 16.500 C 13 17.325, 12.325 18, 11.500 18 C 10.675 18, 10 18.675, 10 19.500 C 10 20.325, 10.675 21, 11.500 21 C 12.583 21, 13 22.111, 13 25 C 13 27.200, 13.450 29, 14 29 C 14.550 29, 15 30.350, 15 32 C 15 34, 15.500 35, 16.500 35 C 17.325 35, 18 35.675, 18 36.500 C 18 37.325, 18.675 38, 19.500 38 C 20.325 38, 21 38.675, 21 39.500 C 21 40.325, 21.675 41, 22.500 41 C 23.325 41, 24 41.450, 24 42 C 24 42.583, 27.333 43, 32 43 C 36.667 43, 40 42.583, 40 42 C 40 41.450, 40.675 41, 41.500 41 C 42.325 41, 43 40.325, 43 39.500 C 43 38.675, 43.675 38, 44.500 38 C 45.652 38, 46 36.722, 46 32.500 C 46 28.278, 45.652 27, 44.500 27 C 43.500 27, 43 26, 43 24 C 43 21.467, 42.611 21, 40.500 21 C 38.944 21, 38 20.433, 38 19.500 C 38 18.675, 37.325 18, 36.500 18 C 35.675 18, 35 17.550, 35 17 C 35 16.450, 33.186 16, 30.969 16 C 28.308 16, 26.742 15.490, 26.362 14.500 C 25.948 13.423, 24.264 13, 20.393 13 C 16.266 13, 15 12.648, 15 11.500 C 15 10.567, 14.056 10, 12.500 10 C 10.500 10, 10 10.500, 10 12.500 M 17 16.500 C 17 17.325, 16.550 18, 16 18 C 15.450 18, 15 18.675, 15 19.500 C 15 20.500, 16 21, 18 21 C 20.667 21, 21 20.667, 21 18 C 21 15.667, 20.556 15, 19 15 C 17.889 15, 17 15.667, 17 16.500 M 26 24.500 C 26 25.325, 25.325 26, 24.500 26 C 23.367 26, 23 27.222, 23 31 C 23 34.778, 23.367 36, 24.500 36 C 25.325 36, 26 36.450, 26 37 C 26 37.556, 28.667 38, 32 38 C 35.333 38, 38 37.556, 38 37 C 38 36.450, 38.675 36, 39.500 36 C 40.633 36, 41 34.778, 41 31 C 41 27.222, 40.633 26, 39.500 26 C 38.675 26, 38 25.325, 38 24.500 C 38 23.333, 36.667 23, 32 23 C 27.333 23, 26 23.333, 26 24.500 M 32 28 C 32 28.733, 32.300 29.033, 32.667 28.667 C 33.033 28.300, 33.033 27.700, 32.667 27.333 C 32.300 26.967, 32 27.267, 32 28" stroke="none" fill="#dbff96" fill-rule="evenodd"/><path d="M 10 8 C 10 8.550, 11.800 9, 14 9 C 16.200 9, 18 8.550, 18 8 C 18 7.450, 16.200 7, 14 7 C 11.800 7, 10 7.450, 10 8 M 7 14 C 7 16.200, 7.450 18, 8 18 C 8.550 18, 9 16.200, 9 14 C 9 11.800, 8.550 10, 8 10 C 7.450 10, 7 11.800, 7 14 M 18 11 C 18 11.550, 19.800 12, 22 12 C 24.200 12, 26 11.550, 26 11 C 26 10.450, 24.200 10, 22 10 C 19.800 10, 18 10.450, 18 11 M 27 14 C 27 14.550, 28.800 15, 31 15 C 33.200 15, 35 14.550, 35 14 C 35 13.450, 33.200 13, 31 13 C 28.800 13, 27 13.450, 27 14 M 35 17 C 35 17.550, 35.675 18, 36.500 18 C 37.325 18, 38 18.675, 38 19.500 C 38 20.433, 38.944 21, 40.500 21 C 42.056 21, 43 20.433, 43 19.500 C 43 18.567, 42.056 18, 40.500 18 C 39.125 18, 38 17.550, 38 17 C 38 16.450, 37.325 16, 36.500 16 C 35.675 16, 35 16.450, 35 17 M 10 22 C 10 22.550, 10.450 23, 11 23 C 11.550 23, 12 22.550, 12 22 C 12 21.450, 11.550 21, 11 21 C 10.450 21, 10 21.450, 10 22 M 44 23.500 C 44 24.875, 44.450 26, 45 26 C 45.550 26, 46 24.875, 46 23.500 C 46 22.125, 45.550 21, 45 21 C 44.450 21, 44 22.125, 44 23.500 M 47 32.500 C 47 35.525, 47.450 38, 48 38 C 48.550 38, 49 35.525, 49 32.500 C 49 29.475, 48.550 27, 48 27 C 47.450 27, 47 29.475, 47 32.500 M 13 31 C 13 31.550, 13.450 32, 14 32 C 14.550 32, 15 31.550, 15 31 C 15 30.450, 14.550 30, 14 30 C 13.450 30, 13 30.450, 13 31 M 15 37 C 15 37.550, 15.675 38, 16.500 38 C 17.325 38, 18 38.675, 18 39.500 C 18 40.325, 18.450 41, 19 41 C 20.454 41, 20.224 39.081, 18.571 37.429 C 16.919 35.776, 15 35.546, 15 37 M 44 39.500 C 44 40.325, 44.450 41, 45 41 C 45.550 41, 46 40.325, 46 39.500 C 46 38.675, 45.550 38, 45 38 C 44.450 38, 44 38.675, 44 39.500 M 21 42 C 21 42.550, 21.450 43, 22 43 C 22.550 43, 23 42.550, 23 42 C 23 41.450, 22.550 41, 22 41 C 21.450 41, 21 41.450, 21 42 M 41 42 C 41 42.550, 41.450 43, 42 43 C 42.550 43, 43 42.550, 43 42 C 43 41.450, 42.550 41, 42 41 C 41.450 41, 41 41.450, 41 42 M 27 45 C 27 45.550, 29.475 46, 32.500 46 C 35.525 46, 38 45.550, 38 45 C 38 44.450, 35.525 44, 32.500 44 C 29.475 44, 27 44.450, 27 45" stroke="none" fill="#24e52b" fill-rule="evenodd"/><path d="M -0 28.516 L -0 57.032 27.250 56.766 L 54.500 56.500 54.766 28.250 L 55.031 -0 27.516 -0 L 0 0 -0 28.516 M 0.441 29 C 0.441 44.675, 0.579 51.087, 0.748 43.250 C 0.917 35.412, 0.917 22.587, 0.748 14.750 C 0.579 6.912, 0.441 13.325, 0.441 29 M 9 7.500 C 9 8.325, 8.325 9, 7.500 9 C 6.675 9, 6 9.627, 6 10.393 C 6 11.159, 5.325 12.045, 4.500 12.362 C 2.391 13.171, 2.391 22.829, 4.500 23.638 C 5.478 24.014, 6 25.569, 6 28.107 C 6 30.901, 6.424 32, 7.500 32 C 8.500 32, 9 33, 9 35 C 9 37, 9.500 38, 10.500 38 C 11.500 38, 12 39, 12 41 C 12 43, 12.500 44, 13.500 44 C 14.325 44, 15 44.675, 15 45.500 C 15 46.325, 15.675 47, 16.500 47 C 17.325 47, 18 47.675, 18 48.500 C 18 49.415, 18.933 50, 20.393 50 C 21.709 50, 23.045 50.675, 23.362 51.500 C 23.798 52.637, 25.641 53, 30.969 53 C 36.552 53, 38 52.691, 38 51.500 C 38 50.675, 38.675 50, 39.500 50 C 40.325 50, 41 49.325, 41 48.500 C 41 47.675, 41.675 47, 42.500 47 C 43.325 47, 44 46.325, 44 45.500 C 44 44.675, 44.675 44, 45.500 44 C 46.325 44, 47 43.325, 47 42.500 C 47 41.675, 47.675 41, 48.500 41 C 50.682 41, 50.682 27.199, 48.500 26.362 C 47.675 26.045, 47 24.709, 47 23.393 C 47 21.933, 46.415 21, 45.500 21 C 44.675 21, 44 20.325, 44 19.500 C 44 18.500, 43 18, 41 18 C 39 18, 38 17.500, 38 16.500 C 38 15.675, 37.325 15, 36.500 15 C 35.675 15, 35 14.325, 35 13.500 C 35 12.417, 33.889 12, 31 12 C 28.111 12, 27 11.583, 27 10.500 C 27 9.389, 25.833 9, 22.500 9 C 19.167 9, 18 8.611, 18 7.500 C 18 6.389, 16.833 6, 13.500 6 C 10.167 6, 9 6.389, 9 7.500 M 15 11 C 15 11.550, 15.675 12, 16.500 12 C 17.325 12, 18 11.550, 18 11 C 18 10.450, 17.325 10, 16.500 10 C 15.675 10, 15 10.450, 15 11 M 9.667 15.667 C 8.516 16.817, 8.938 18, 10.500 18 C 11.325 18, 12 17.325, 12 16.500 C 12 14.938, 10.817 14.516, 9.667 15.667 M 18 16.500 C 18 17.325, 17.325 18, 16.500 18 C 15.675 18, 15 18.675, 15 19.500 C 15 20.500, 16 21, 18 21 C 20.667 21, 21 20.667, 21 18 C 21 16, 20.500 15, 19.500 15 C 18.675 15, 18 15.675, 18 16.500" stroke="none" fill="#1c1e1c" fill-rule="evenodd"/><path d="M 9.384 10.442 C 9.080 11.234, 9.042 12.697, 9.299 13.692 C 9.613 14.903, 9.806 14.615, 9.884 12.816 C 9.976 10.694, 10.575 10.046, 12.750 9.716 L 15.500 9.300 12.719 9.150 C 11.106 9.063, 9.705 9.606, 9.384 10.442 M 21.442 12.740 C 23.611 12.962, 25.878 13.819, 26.482 14.645 C 27.241 15.682, 28.803 16.021, 31.540 15.741 L 35.500 15.336 31.357 15.168 C 28.716 15.061, 27.005 14.456, 26.638 13.500 C 26.235 12.449, 24.780 12.050, 21.781 12.168 L 17.500 12.336 21.442 12.740 M 12 15.500 C 12 15.775, 12.225 16, 12.500 16 C 12.775 16, 13 15.775, 13 15.500 C 13 15.225, 12.775 15, 12.500 15 C 12.225 15, 12 15.225, 12 15.500 M 17.079 16.583 C 17.127 17.748, 17.364 17.985, 17.683 17.188 C 17.972 16.466, 17.936 15.603, 17.604 15.271 C 17.272 14.939, 17.036 15.529, 17.079 16.583 M 9.079 19.583 C 9.127 20.748, 9.364 20.985, 9.683 20.188 C 9.972 19.466, 9.936 18.603, 9.604 18.271 C 9.272 17.939, 9.036 18.529, 9.079 19.583 M 12.383 24.922 C 12.463 27.935, 12.978 29.473, 14 29.748 C 15.031 30.026, 15.132 29.890, 14.324 29.313 C 13.678 28.852, 12.951 26.680, 12.708 24.487 C 12.270 20.530, 12.268 20.533, 12.383 24.922 M 43.232 24 C 43.232 25.925, 43.438 26.712, 43.689 25.750 C 43.941 24.788, 43.941 23.212, 43.689 22.250 C 43.438 21.288, 43.232 22.075, 43.232 24 M 28.750 23.723 C 30.538 23.945, 33.462 23.945, 35.250 23.723 C 37.038 23.502, 35.575 23.320, 32 23.320 C 28.425 23.320, 26.962 23.502, 28.750 23.723 M 23 26.500 C 23 26.775, 23.225 27, 23.500 27 C 23.775 27, 24 26.775, 24 26.500 C 24 26.225, 23.775 26, 23.500 26 C 23.225 26, 23 26.225, 23 26.500 M 38.813 26.683 C 39.534 26.972, 40.397 26.936, 40.729 26.604 C 41.061 26.272, 40.471 26.036, 39.417 26.079 C 38.252 26.127, 38.015 26.364, 38.813 26.683 M 46.310 32.500 C 46.315 35.800, 46.502 37.029, 46.725 35.232 C 46.947 33.435, 46.943 30.735, 46.715 29.232 C 46.486 27.729, 46.304 29.200, 46.310 32.500 M 23 35.500 C 23 35.775, 23.225 36, 23.500 36 C 23.775 36, 24 35.775, 24 35.500 C 24 35.225, 23.775 35, 23.500 35 C 23.225 35, 23 35.225, 23 35.500 M 40 35.500 C 40 35.775, 40.225 36, 40.500 36 C 40.775 36, 41 35.775, 41 35.500 C 41 35.225, 40.775 35, 40.500 35 C 40.225 35, 40 35.225, 40 35.500 M 43.079 39.583 C 43.127 40.748, 43.364 40.985, 43.683 40.188 C 43.972 39.466, 43.936 38.603, 43.604 38.271 C 43.272 37.939, 43.036 38.529, 43.079 39.583 M 40 41.960 C 40 42.487, 36.288 43.071, 31.750 43.256 L 23.500 43.593 32.250 43.796 C 39.452 43.964, 41 43.735, 41 42.500 C 41 41.675, 40.775 41, 40.500 41 C 40.225 41, 40 41.432, 40 41.960" stroke="none" fill="#8fe069" fill-rule="evenodd"/></svg>